<svg viewBox="0 0 1500 260" xmlns="http://www.w3.org/2000/svg" font-family="-apple-system, BlinkMacSystemFont, 'Segoe UI', Roboto, Helvetica, Arial, sans-serif" role="img" aria-label="Argus pipeline: a pull request is read by a planner that writes a shared review brief, which fans out to nine parallel lenses on a cheap model, converges on a curator on a strong model that drops findings only with a cited quote, and posts one GitHub review verdict.">
<defs><linearGradient id="grad" x1="0" y1="0" x2="1" y2="1"><stop offset="0" stop-color="#6366f1"/><stop offset="1" stop-color="#8b5cf6"/></linearGradient><marker id="arrow" viewBox="0 0 10 10" refX="9" refY="5" markerWidth="7" markerHeight="7" orient="auto-start-reverse"><path d="M0 0 L10 5 L0 10 z" fill="#6b6676"/></marker></defs>
<g fill="none" stroke="#6b6676" stroke-width="1.6" marker-end="url(#arrow)"><path d="M196 130 C214 130, 214 130, 232 130"/><path d="M408 130 C433 130, 433 76, 458 76"/><path d="M640 76 C861 76, 861 130, 1082 130"/><path d="M408 130 C531 130, 531 76, 654 76"/><path d="M836 76 C959 76, 959 130, 1082 130"/><path d="M408 130 C629 130, 629 76, 850 76"/><path d="M1032 76 C1057 76, 1057 130, 1082 130"/><path d="M408 130 C433 130, 433 130, 458 130"/><path d="M640 130 C861 130, 861 130, 1082 130"/><path d="M408 130 C531 130, 531 130, 654 130"/><path d="M836 130 C959 130, 959 130, 1082 130"/><path d="M408 130 C629 130, 629 130, 850 130"/><path d="M1032 130 C1057 130, 1057 130, 1082 130"/><path d="M408 130 C433 130, 433 184, 458 184"/><path d="M640 184 C861 184, 861 130, 1082 130"/><path d="M408 130 C531 130, 531 184, 654 184"/><path d="M836 184 C959 184, 959 130, 1082 130"/><path d="M408 130 C629 130, 629 184, 850 184"/><path d="M1032 184 C1057 184, 1057 130, 1082 130"/><path d="M1302 130 C1327 130, 1327 70, 1352 70"/><path d="M1302 130 C1327 130, 1327 130, 1352 130"/><path d="M1302 130 C1327 130, 1327 190, 1352 190"/></g>
<rect x="36" y="90" width="160" height="80" rx="14" fill="#fbfaff" stroke="#e6e2f0"/><circle cx="66" cy="118" r="4.5" fill="url(#grad)"/><circle cx="66" cy="144" r="4.5" fill="url(#grad)"/><path d="M66 122 v18" stroke="url(#grad)" stroke-width="2" fill="none"/><text x="86" y="122" font-size="14" font-weight="650" fill="#1b1926">Pull Request</text><text x="86" y="142" font-size="10.5" font-family="ui-monospace, Menlo, Consolas, monospace" fill="#6b6676">diff · files · intent</text>
<rect x="232" y="85" width="176" height="90" rx="14" fill="#ecfdf5" stroke="#0d9488" stroke-opacity="0.6"/><rect x="247" y="119.0" width="18" height="22" rx="2" fill="none" stroke="#0d9488" stroke-width="1.6"/><line x1="250" y1="124.0" x2="262" y2="124.0" stroke="#0d9488" stroke-width="1.6" stroke-linecap="round"/><line x1="250" y1="129.0" x2="262" y2="129.0" stroke="#0d9488" stroke-width="1.6" stroke-linecap="round"/><line x1="250" y1="134.0" x2="262" y2="134.0" stroke="#0d9488" stroke-width="1.6" stroke-linecap="round"/><text x="282" y="115" font-size="14" font-weight="650" fill="#0f766e">Planner</text><text x="282" y="135" font-size="10" font-family="ui-monospace, Menlo, Consolas, monospace" fill="#6b6676">one cheap call, up front</text><text x="282" y="153" font-size="10" font-family="ui-monospace, Menlo, Consolas, monospace" fill="#6b6676">writes the shared brief</text>
<text x="458" y="40" font-size="10.5" font-family="ui-monospace, Menlo, Consolas, monospace" letter-spacing="0.4" fill="#6366f1">LENSES · PARALLEL · CHEAP MODEL · SHARE THE PLANNER'S BRIEF</text>
<rect x="458" y="54" width="182" height="44" rx="10" fill="#eef1fe" stroke="#6366f1" stroke-opacity="0.5"/><circle cx="478" cy="76.0" r="8" fill="none" stroke="#6366f1" stroke-width="1.6"/><circle cx="478" cy="76.0" r="3" fill="#6366f1"/><text x="496" y="80.0" font-size="12.5" font-weight="650" fill="#1b1926">Security</text>
<rect x="654" y="54" width="182" height="44" rx="10" fill="#eef1fe" stroke="#6366f1" stroke-opacity="0.5"/><circle cx="674" cy="76.0" r="8" fill="none" stroke="#6366f1" stroke-width="1.6"/><circle cx="674" cy="76.0" r="3" fill="#6366f1"/><text x="692" y="80.0" font-size="12.5" font-weight="650" fill="#1b1926">Tests</text>
<rect x="850" y="54" width="182" height="44" rx="10" fill="#eef1fe" stroke="#6366f1" stroke-opacity="0.5"/><circle cx="870" cy="76.0" r="8" fill="none" stroke="#6366f1" stroke-width="1.6"/><circle cx="870" cy="76.0" r="3" fill="#6366f1"/><text x="888" y="80.0" font-size="12.5" font-weight="650" fill="#1b1926">Error handling</text>
<rect x="458" y="108" width="182" height="44" rx="10" fill="#eef1fe" stroke="#6366f1" stroke-opacity="0.5"/><circle cx="478" cy="130.0" r="8" fill="none" stroke="#6366f1" stroke-width="1.6"/><circle cx="478" cy="130.0" r="3" fill="#6366f1"/><text x="496" y="134.0" font-size="12.5" font-weight="650" fill="#1b1926">Contracts</text>
<rect x="654" y="108" width="182" height="44" rx="10" fill="#eef1fe" stroke="#6366f1" stroke-opacity="0.5"/><circle cx="674" cy="130.0" r="8" fill="none" stroke="#6366f1" stroke-width="1.6"/><circle cx="674" cy="130.0" r="3" fill="#6366f1"/><text x="692" y="134.0" font-size="12.5" font-weight="650" fill="#1b1926">Correctness</text>
<rect x="850" y="108" width="182" height="44" rx="10" fill="#eef1fe" stroke="#6366f1" stroke-opacity="0.5"/><circle cx="870" cy="130.0" r="8" fill="none" stroke="#6366f1" stroke-width="1.6"/><circle cx="870" cy="130.0" r="3" fill="#6366f1"/><text x="888" y="134.0" font-size="12.5" font-weight="650" fill="#1b1926">Deleted code</text>
<rect x="458" y="162" width="182" height="44" rx="10" fill="#eef1fe" stroke="#6366f1" stroke-opacity="0.5"/><circle cx="478" cy="184.0" r="8" fill="none" stroke="#6366f1" stroke-width="1.6"/><circle cx="478" cy="184.0" r="3" fill="#6366f1"/><text x="496" y="188.0" font-size="12.5" font-weight="650" fill="#1b1926">Reuse</text>
<rect x="654" y="162" width="182" height="44" rx="10" fill="#eef1fe" stroke="#6366f1" stroke-opacity="0.5"/><circle cx="674" cy="184.0" r="8" fill="none" stroke="#6366f1" stroke-width="1.6"/><circle cx="674" cy="184.0" r="3" fill="#6366f1"/><text x="692" y="188.0" font-size="12.5" font-weight="650" fill="#1b1926">Efficiency</text>
<rect x="850" y="162" width="182" height="44" rx="10" fill="#fbfaff" stroke="#c9c3d8" stroke-dasharray="4 4"/><circle cx="870" cy="184.0" r="8" fill="none" stroke="#6b6676" stroke-width="1.6"/><circle cx="870" cy="184.0" r="3" fill="#6b6676"/><text x="888" y="188.0" font-size="12.5" font-weight="650" fill="#6b6676">…your own</text>
<rect x="1082" y="74" width="220" height="112" rx="16" fill="url(#grad)"/><path d="M1100 100 l16 -6 l16 6 v14 c0 11 -7 19 -16 23 c-9 -4 -16 -12 -16 -23 z" fill="none" stroke="#ffffff" stroke-width="2" stroke-linejoin="round"/><text x="1140" y="112" font-size="15" font-weight="650" fill="#ffffff">Curator</text><text x="1140" y="132" font-size="10.5" font-family="ui-monospace, Menlo, Consolas, monospace" fill="#ffffff" fill-opacity="0.9">strong model</text><text x="1104" y="160" font-size="10" font-family="ui-monospace, Menlo, Consolas, monospace" fill="#ffffff" fill-opacity="0.9">merge · verify · drop only with a cited quote</text>
<rect x="1352" y="50.0" width="128" height="40" rx="10" fill="#e7f6ec" stroke="#16a34a" stroke-opacity="0.55"/><text x="1372" y="75.0" font-size="12.5" font-weight="650" fill="#16a34a">✓ Approve</text>
<rect x="1352" y="110.0" width="128" height="40" rx="10" fill="#fbf0dd" stroke="#d97706" stroke-opacity="0.55"/><text x="1372" y="135.0" font-size="12.5" font-weight="650" fill="#d97706">💬 Comment</text>
<rect x="1352" y="170.0" width="128" height="40" rx="10" fill="#fbe9e9" stroke="#dc2626" stroke-opacity="0.55"/><text x="1372" y="195.0" font-size="12.5" font-weight="650" fill="#dc2626">✕ Changes</text>
<text x="750" y="246" font-size="11" font-family="ui-monospace, Menlo, Consolas, monospace" fill="#6b6676" text-anchor="middle">posted as one GitHub review · any provider via litellm (Anthropic · OpenAI · Gemini · OpenRouter)</text>
</svg>